# xmcd
#
# Track frame offsets: 
#        150
#        5400
#        28550
#        47645
#        67860
#        90210
#        110120
#        132420
#        152825
#        155554
#        179870
#        199425
#        220625
#        242345
#        269000
#        288445
#
# Disc length: 3938 seconds
#
# Revision: 1
# Processed by: cddbd v1.5.2PL0 Copyright (c) Steve Scherf et al.
# Submitted via: ExactAudioCopyFreeDBPlugin 1.0
#
DISCID=e40f6010
DTITLE=Acid Black Cherry - 2012
DYEAR=2012
DGENRE=Rock
TTITLE0=～until～
TTITLE1=Fallin' Angel
TTITLE2=in the Mirror
TTITLE3=ピストル
TTITLE4=少女の祈りⅢ ～『2012』ver.～
TTITLE5=Re:birth
TTITLE6=指輪物語
TTITLE7=CRISIS
TTITLE8=～the day～
TTITLE9=その日が来るまで
TTITLE10=so… Good night
TTITLE11=doomsday clock
TTITLE12=蝶
TTITLE13=イエス
TTITLE14=シャングリラ
TTITLE15=～comes～
EXTD=
EXTT0=
EXTT1=
EXTT2=
EXTT3=
EXTT4=
EXTT5=
EXTT6=
EXTT7=
EXTT8=
EXTT9=
EXTT10=
EXTT11=
EXTT12=
EXTT13=
EXTT14=
EXTT15=
PLAYORDER=
